<svg aria-hidden="true" style="position: absolute; width: 0; height: 0; overflow: hidden;" version="1.1" xmlns="http://www.w3.org/2000/svg" xmlns:xlink="http://www.w3.org/1999/xlink">
<defs>
<symbol id="icon-burger" viewBox="0 0 32 32">
<path d="M30.769 7.692h-29.538c-0.68 0-1.231-0.551-1.231-1.231s0.551-1.231 1.231-1.231v0h29.538c0.68 0 1.231 0.551 1.231 1.231s-0.551 1.231-1.231 1.231v0z"></path>
<path d="M30.769 17.231h-29.538c-0.68 0-1.231-0.551-1.231-1.231s0.551-1.231 1.231-1.231v0h29.538c0.68 0 1.231 0.551 1.231 1.231s-0.551 1.231-1.231 1.231v0z"></path>
<path d="M30.769 26.769h-29.538c-0.68 0-1.231-0.551-1.231-1.231s0.551-1.231 1.231-1.231v0h29.538c0.68 0 1.231 0.551 1.231 1.231s-0.551 1.231-1.231 1.231v0z"></path>
</symbol>
</defs>
</svg>
